<?xml version="1.0" encoding="UTF-8"?>
<svg width="32" height="32" viewBox="0 0 32 32" fill="none" xmlns="http://www.w3.org/2000/svg">
  <circle cx="16" cy="16" r="14" fill="#10B981" stroke="white" stroke-width="2"/>
  <path d="M16 2C15 2 14 2 13 2L14 6H18L19 2C18 2 17 2 16 2Z" fill="white"/>
  <path d="M30 16C30 15 30 14 30 13L26 14V18L30 19C30 18 30 17 30 16Z" fill="white"/>
  <path d="M16 30C17 30 18 30 19 30L18 26H14L13 30C14 30 15 30 16 30Z" fill="white"/>
  <path d="M2 16C2 17 2 18 2 19L6 18V14L2 13C2 14 2 15 2 16Z" fill="white"/>
  <path d="M8 8C7 9 6 10 5 11L8 13L10 10C9 9 8 8 8 8Z" fill="white"/>
  <path d="M24 8C25 9 26 10 27 11L24 13L22 10C23 9 24 8 24 8Z" fill="white"/>
  <path d="M8 24C9 25 10 26 11 27L13 24L10 22C9 23 8 24 8 24Z" fill="white"/>
  <path d="M24 24C23 25 22 26 21 27L19 24L22 22C23 23 24 24 24 24Z" fill="white"/>
  <path d="M16 10C14.9 10 14 10.9 14 12C14 13.1 14.9 14 16 14C17.1 14 18 13.1 18 12C18 10.9 17.1 10 16 10Z" fill="white"/>
  <path d="M16 18C14.9 18 14 18.9 14 20C14 21.1 14.9 22 16 22C17.1 22 18 21.1 18 20C18 18.9 17.1 18 16 18Z" fill="white"/>
  <path d="M10 16C10 14.9 9.1 14 8 14C6.9 14 6 14.9 6 16C6 17.1 6.9 18 8 18C9.1 18 10 17.1 10 16Z" fill="white"/>
  <path d="M24 16C24 14.9 23.1 14 22 14C20.9 14 20 14.9 20 16C20 17.1 20.9 18 22 18C23.1 18 24 17.1 24 16Z" fill="white"/>
</svg>
